# File created by Blade
# Date/Time:  Tue Jan 27 17:08:52 2015
# Frame Rate: 120.000 fps
#------------------------------------------------------
:FULLY-SPECIFIED
:DEGREES
4184
root -2.846927 36.871843 2.214971 6.711755 -2.597393 -0.876065
Spine 3.584067 3.388477 3.115349
Head -2.709528 2.923931 -4.183593
LeftShoulder -5.970153 -6.023680 10.247013
LeftArm -6.300649 -31.471732 -41.029215
LeftForeArm -9.585403 -0.000000 71.451613
LeftHand -17.418050 -0.000000 10.182935
LeftHandThumb1 -26.253704 0.000000 33.147579
RightShoulder -10.037555 -24.136426 -3.131038
RightArm 11.878399 -24.084050 45.373806
RightForeArm 176.274801 -0.000000 61.732138
RightHand -0.630253 -0.000000 11.020627
RightHandThumb1 -24.326973 -0.000000 -32.862282
LeftUpLeg -4.070064 12.123361 2.684297
LeftLeg 7.749018 -0.000000 -0.000000
LeftFoot -18.565372 2.874868 -18.602387
LeftToeBase 15.693770 -0.000000 -0.000000
RightUpLeg -20.054325 -14.395984 -4.804536
RightLeg 28.439365 -0.000000 -0.000000
RightFoot -11.674169 -3.525152 14.334662
RightToeBase -1.174965 -0.000000 0.000000
4185
root -2.827056 36.879564 2.199206 6.616688 -2.686339 -1.009407
Spine 3.600881 3.498883 3.070199
Head -2.581297 2.817836 -4.021450
LeftShoulder -5.876609 -6.225376 10.436035
LeftArm -6.129894 -31.430255 -40.470499
LeftForeArm -9.354439 0.000000 70.317695
LeftHand -17.667830 -0.000000 9.331457
LeftHandThumb1 -26.253704 0.000000 33.147579
RightShoulder -10.013252 -24.011899 -3.182582
RightArm 11.919284 -23.376266 44.880118
RightForeArm 176.784354 0.000000 61.249561
RightHand -0.566177 -0.000000 11.432718
RightHandThumb1 -24.326973 -0.000000 -32.862282
LeftUpLeg -3.951499 12.132835 2.798243
LeftLeg 7.685374 -0.000000 -0.000000
LeftFoot -18.574583 2.966714 -18.587033
LeftToeBase 15.685051 -0.000000 -0.000000
RightUpLeg -20.222410 -14.441331 -4.555526
RightLeg 29.347008 -0.000000 -0.000000
RightFoot -11.984591 -2.244218 14.243129
RightToeBase -1.760076 -0.000000 0.000000
4186
root -2.809621 36.886617 2.181796 6.534929 -2.749219 -1.169356
Spine 3.597662 3.584614 3.091619
Head -2.448839 2.733945 -3.860580
LeftShoulder -5.786094 -6.446839 10.593587
LeftArm -5.945943 -31.343902 -39.913877
LeftForeArm -9.022271 -0.000000 69.215434
LeftHand -18.037622 0.000000 8.668649
LeftHandThumb1 -26.253704 0.000000 33.147579
RightShoulder -9.961777 -23.884756 -3.285696
RightArm 11.917966 -22.640174 44.338541
RightForeArm 177.341786 0.000000 60.765828
RightHand -0.493472 -0.000000 11.447659
RightHandThumb1 -24.326973 -0.000000 -32.862282
LeftUpLeg -3.904556 12.251569 2.931562
LeftLeg 7.734876 -0.000000 -0.000000
LeftFoot -18.614608 2.958573 -18.533307
LeftToeBase 15.727660 -0.000000 -0.000000
RightUpLeg -20.361691 -14.451276 -4.272484
RightLeg 30.205040 -0.000000 -0.000000
RightFoot -12.357084 -1.278100 14.107211
RightToeBase -2.098943 -0.000000 0.000000
4187
root -2.793152 36.892622 2.167731 6.469920 -2.821599 -1.276696
Spine 3.553147 3.691430 3.041005
Head -2.322803 2.619188 -3.703567
LeftShoulder -5.758419 -6.583239 10.809733
LeftArm -5.596508 -31.245883 -39.496747
LeftForeArm -8.505358 -0.000000 68.056485
LeftHand -18.219778 -0.000000 8.039934
LeftHandThumb1 -26.253704 0.000000 33.147579
RightShoulder -9.898476 -23.774005 -3.385774
RightArm 11.843407 -21.854412 43.805045
RightForeArm 177.992954 -0.000000 60.302074
RightHand -0.396127 -0.000000 10.687650
RightHandThumb1 -24.326973 -0.000000 -32.862282
LeftUpLeg -3.853909 12.369845 3.012177
LeftLeg 7.749358 -0.000000 -0.000000
LeftFoot -18.615203 2.958128 -18.492621
LeftToeBase 15.712285 -0.000000 -0.000000
RightUpLeg -20.480399 -14.460732 -4.034995
RightLeg 31.023234 -0.000000 -0.000000
RightFoot -12.698002 -0.480841 14.081251
RightToeBase -2.666513 -0.000000 0.000000
4188
root -2.777172 36.898723 2.154357 6.386700 -2.856650 -1.368517
Spine 3.533656 3.787279 2.993365
Head -2.233464 2.445550 -3.491676
LeftShoulder -5.656320 -6.787043 10.905941
LeftArm -5.360823 -31.075147 -38.862015
LeftForeArm -7.830727 -0.000000 67.015580
LeftHand -18.496978 -0.000000 7.539028
LeftHandThumb1 -26.253704 0.000000 33.147579
RightShoulder -9.925074 -23.663754 -3.440028
RightArm 11.856241 -21.074126 43.119760
RightForeArm 178.559225 -0.000000 59.812959
RightHand -0.226638 -0.000000 9.669281
RightHandThumb1 -24.326973 -0.000000 -32.862282
LeftUpLeg -3.774930 12.404718 3.091694
LeftLeg 7.736297 -0.000000 -0.000000
LeftFoot -18.613791 2.968848 -18.469860
LeftToeBase 15.728385 -0.000000 -0.000000
RightUpLeg -20.546171 -14.447983 -3.824191
RightLeg 31.829967 -0.000000 -0.000000
RightFoot -13.149960 0.019688 13.927957
RightToeBase -2.547596 -0.000000 0.000000
4189
root -2.763423 36.904951 2.144126 6.296265 -2.848597 -1.484420
Spine 3.500094 3.825555 3.005619
Head -2.096312 2.323756 -3.363332
LeftShoulder -5.589386 -6.946145 11.043133
LeftArm -5.092756 -30.955935 -38.377327
LeftForeArm -6.627019 -0.000000 65.983735
LeftHand -18.548779 -0.000000 6.909289
LeftHandThumb1 -26.253704 0.000000 33.147579
RightShoulder -9.904458 -23.592321 -3.529129
RightArm 11.839873 -20.279490 42.387226
RightForeArm 179.102170 -0.000000 59.328017
RightHand 0.122690 -0.000000 8.057201
RightHandThumb1 -24.326973 -0.000000 -32.862282
LeftUpLeg -3.707064 12.463305 3.202975
LeftLeg 7.763655 -0.000000 -0.000000
LeftFoot -18.616240 2.912829 -18.458957
LeftToeBase 15.729504 -0.000000 -0.000000
RightUpLeg -20.530620 -14.458919 -3.606211
RightLeg 32.531843 -0.000000 -0.000000
RightFoot -13.538546 0.442193 13.924467
RightToeBase -2.415506 -0.000000 0.000000
